<svg width="72" height="64" viewBox="0 0 72 64" fill="none" xmlns="http://www.w3.org/2000/svg">
<path d="M70.0817 21.3334H34.4469C33.7342 21.3334 33.2591 21.76 33.2591 22.4V62.9334C33.2591 63.5734 33.7342 64 34.4469 64H70.0817C70.7944 64 71.2695 63.5734 71.2695 62.9334V22.4C71.2695 21.76 70.7944 21.3334 70.0817 21.3334ZM68.8938 23.4667V29.8667H35.6347C35.6347 29.2267 35.6347 28.16 35.6347 27.7334H49.8886V25.6H35.6347C35.6347 25.3867 35.6347 23.4667 35.6347 23.4667H68.8938ZM35.6347 61.8667C35.6347 61.8667 35.6347 42.3467 35.6347 32H68.8938V61.8667H35.6347Z" fill="black"/>
<path d="M45.1373 34.1333H41.5739V36.2666H45.1373V34.1333Z" fill="black"/>
<path d="M51.0765 34.1333H47.513V36.2666H51.0765V34.1333Z" fill="black"/>
<path d="M57.0156 34.1333H53.4521V36.2666H57.0156V34.1333Z" fill="black"/>
<path d="M62.9547 34.1333H59.3912V36.2666H62.9547V34.1333Z" fill="black"/>
<path d="M43.9495 39.4667H39.1982V41.6H43.9495V39.4667Z" fill="black"/>
<path d="M51.0765 39.4667H46.3252V41.6H51.0765V39.4667Z" fill="black"/>
<path d="M58.2034 39.4667H53.4521V41.6H58.2034V39.4667Z" fill="black"/>
<path d="M65.3304 39.4667H60.5791V41.6H65.3304V39.4667Z" fill="black"/>
<path d="M43.9495 43.7334H39.1982V45.8667H43.9495V43.7334Z" fill="black"/>
<path d="M51.0765 43.7334H46.3252V45.8667H51.0765V43.7334Z" fill="black"/>
<path d="M58.2034 43.7334H53.4521V45.8667H58.2034V43.7334Z" fill="black"/>
<path d="M65.3304 43.7334H60.5791V45.8667H65.3304V43.7334Z" fill="black"/>
<path d="M43.9495 48H39.1982V50.1333H43.9495V48Z" fill="black"/>
<path d="M51.0765 48H46.3252V50.1333H51.0765V48Z" fill="black"/>
<path d="M58.2034 48H53.4521V50.1333H58.2034V48Z" fill="black"/>
<path d="M65.3304 48H60.5791V50.1333H65.3304V48Z" fill="black"/>
<path d="M43.9495 52.2666H39.1982V54.3999H43.9495V52.2666Z" fill="black"/>
<path d="M51.0765 52.2666H46.3252V54.3999H51.0765V52.2666Z" fill="black"/>
<path d="M58.2034 52.2666H53.4521V54.3999H58.2034V52.2666Z" fill="black"/>
<path d="M65.3304 52.2666H60.5791V54.3999H65.3304V52.2666Z" fill="black"/>
<path d="M43.9495 56.5333H39.1982V58.6667H43.9495V56.5333Z" fill="black"/>
<path d="M51.0765 56.5333H46.3252V58.6667H51.0765V56.5333Z" fill="black"/>
<path d="M58.2034 56.5333H53.4521V58.6667H58.2034V56.5333Z" fill="black"/>
<path d="M65.3304 56.5333H60.5791V58.6667H65.3304V56.5333Z" fill="black"/>
<path d="M2.37565 14.9333H15.4417C16.1544 14.9333 16.6295 14.5067 16.6295 13.8667V2.13333H57.0156V17.0667H59.3912V1.06667C59.3912 0.426667 58.9161 0 58.2034 0H15.4417C15.3229 0 15.2042 0 15.0854 0.106667H14.9666C14.8478 0.213333 14.729 0.213333 14.6102 0.32L0.356347 13.12C0.237565 13.2267 0.237565 13.3333 0.118782 13.44V13.5467C0.118782 13.6533 0 13.76 0 13.8667V25.6H2.37565C2.37565 25.6 2.37565 16.1067 2.37565 14.9333ZM14.2539 12.8H4.0386L9.14625 8.21333L14.2539 3.62667V12.8Z" fill="black"/>
<path d="M29.6956 45.8667H16.6295V41.6V36.2667V30.9334C16.6295 30.2934 16.1544 29.8667 15.4417 29.8667H1.18782C0.47513 29.8667 0 30.2934 0 30.9334V36.2667V41.6V46.9334V52.2667V57.6V62.9334C0 63.5734 0.47513 64 1.18782 64H15.4417H29.6956C30.4083 64 30.8834 63.5734 30.8834 62.9334V57.6V52.2667V46.9334C30.8834 46.2934 30.4083 45.8667 29.6956 45.8667ZM2.37565 48H14.2539V51.2H2.37565V48ZM14.2539 45.8667H2.37565V42.6667H14.2539V45.8667ZM14.2539 40.5334H2.37565V37.3334H14.2539V40.5334ZM2.37565 53.3334H14.2539V56.5334H2.37565V53.3334ZM16.6295 53.3334H28.5078V56.5334H16.6295V53.3334ZM28.5078 51.2H16.6295V48H28.5078V51.2ZM2.37565 32H14.2539V35.2H2.37565V32ZM2.37565 58.6667H14.2539V61.8667H2.37565V58.6667ZM28.5078 61.8667H16.6295V58.6667H28.5078V61.8667Z" fill="black"/>
<path d="M53.4521 5.33337H45.1373V7.46671H53.4521V5.33337Z" fill="black"/>
<path d="M53.4521 10.6666H32.0713V12.8H53.4521V10.6666Z" fill="black"/>
<path d="M55.8278 25.6H52.2643V27.7333H55.8278V25.6Z" fill="black"/>
</svg>
