<svg width="198" height="77" viewBox="0 0 198 77" fill="none" xmlns="http://www.w3.org/2000/svg">
<path d="M10.0957 8.39482C10.0957 11.0151 8.4058 12.8426 5.95804 12.8426C4.83692 12.8426 3.85342 12.4646 3.1635 11.7729V16.4629H0.869873V4.13235H2.8534L3.00936 5.15072C3.69928 4.37456 4.75068 3.94336 5.95804 3.94336C8.4058 3.94519 10.0957 5.77459 10.0957 8.39482ZM7.81863 8.39482C7.81863 6.9636 6.85347 5.94707 5.49015 5.94707C4.11214 5.94707 3.14514 6.9636 3.14514 8.39482C3.14514 9.82604 4.11214 10.8426 5.49015 10.8426C6.85347 10.8444 7.81863 9.82604 7.81863 8.39482Z" fill="#1D3544"/>
<path d="M20.0611 4.13602V12.6554H18.0775L17.9216 11.6206C17.2151 12.4151 16.1803 12.8444 14.9729 12.8444C12.5251 12.8444 10.8352 11.0169 10.8352 8.39665C10.8352 5.77458 12.5251 3.94702 14.9729 3.94702C16.1803 3.94702 17.2317 4.37822 17.9216 5.15438L18.0775 4.13602H20.0611ZM17.7858 8.39481C17.7858 6.96359 16.8188 5.94706 15.4408 5.94706C14.0793 5.94706 13.1123 6.96359 13.1123 8.39481C13.1123 9.82603 14.0775 10.8426 15.4408 10.8426C16.8188 10.8444 17.7858 9.82603 17.7858 8.39481Z" fill="#1D3544"/>
<path d="M28.5767 4.73979L27.5767 6.51597C27.0941 6.18935 26.6795 6.06825 26.1969 6.06825C24.9381 6.06825 24.1271 6.94717 24.1271 8.49949V12.6555H21.8335V4.1361H23.817L24.006 5.20585C24.6611 4.32693 25.4721 3.96362 26.4042 3.96362C27.1969 3.96362 28.0263 4.22234 28.5767 4.73979Z" fill="#1D3544"/>
<path d="M35.0594 12.3437C34.353 12.6703 33.731 12.7914 32.9731 12.7914C31.2318 12.7914 30.0758 11.8592 30.0758 9.63535V6.0151H28.54V4.13616H30.0758V1.96364L32.3511 1.72144V4.13616H34.6447V6.0151H32.3511V9.63718C32.3511 10.4133 32.7475 10.8097 33.4374 10.8097C33.7658 10.8097 34.1622 10.7069 34.4557 10.5675L35.0594 12.3437Z" fill="#1D3544"/>
<path d="M44.3018 9.15443H37.7311C37.887 10.2242 38.8173 10.9306 40.1972 10.9306C41.111 10.9306 42.0247 10.6205 42.577 10.1196L43.8523 11.4297C42.9569 12.3435 41.5935 12.8774 40.1109 12.8774C37.2301 12.8774 35.4026 11.1361 35.4026 8.4113C35.4026 5.75436 37.2136 3.96167 39.8871 3.96167C42.9734 3.9635 44.6817 5.9984 44.3018 9.15443ZM37.7659 7.63697H42.1458C42.0596 6.5342 41.2321 5.84427 39.9568 5.84427C38.7494 5.84244 37.9384 6.4975 37.7659 7.63697Z" fill="#1D3544"/>
<path d="M54.0434 7.89593V12.6557H51.7498V8.03355C51.7498 6.72159 51.0434 5.96378 49.9039 5.96378C48.6635 5.96378 47.8341 6.87756 47.8341 8.18768V12.6538H45.5405V4.13622H47.5241L47.68 5.11973C48.3516 4.37843 49.3516 3.96558 50.4727 3.96558C52.6452 3.96374 54.0434 5.4812 54.0434 7.89593Z" fill="#1D3544"/>
<path d="M64.0765 9.15443H57.5057C57.6617 10.2242 58.592 10.9306 59.9718 10.9306C60.8856 10.9306 61.7994 10.6205 62.3517 10.1196L63.6269 11.4297C62.7315 12.3435 61.3682 12.8774 59.8856 12.8774C57.0048 12.8774 55.1772 11.1361 55.1772 8.4113C55.1772 5.75436 56.9883 3.96167 59.6617 3.96167C62.748 3.9635 64.4563 5.9984 64.0765 9.15443ZM57.5406 7.63697H61.9205C61.8343 6.5342 61.0067 5.84427 59.7315 5.84427C58.5241 5.84244 57.7131 6.4975 57.5406 7.63697Z" fill="#1D3544"/>
<path d="M72.0584 4.73979L71.0584 6.51597C70.5758 6.18935 70.1611 6.06825 69.6786 6.06825C68.4198 6.06825 67.6088 6.94717 67.6088 8.49949V12.6555H65.3152V4.1361H67.2987L67.4877 5.20585C68.1428 4.32693 68.9538 3.96362 69.8859 3.96362C70.6786 3.96362 71.508 4.22234 72.0584 4.73979Z" fill="#1D3544"/>
<path d="M82.732 4.73979L81.732 6.51597C81.2494 6.18935 80.8347 6.06825 80.3522 6.06825C79.0934 6.06825 78.2824 6.94717 78.2824 8.49949V12.6555H75.9888V4.1361H77.9723L78.1613 5.20585C78.8164 4.32693 79.6274 3.96362 80.5595 3.96362C81.3522 3.96362 82.1797 4.22234 82.732 4.73979Z" fill="#1D3544"/>
<path d="M91.5084 9.15443H84.9376C85.0936 10.2242 86.0239 10.9306 87.4037 10.9306C88.3175 10.9306 89.2313 10.6205 89.7836 10.1196L91.0588 11.4297C90.1634 12.3435 88.8001 12.8774 87.3175 12.8774C84.4367 12.8774 82.6091 11.1361 82.6091 8.4113C82.6091 5.75436 84.4202 3.96167 87.0936 3.96167C90.1799 3.9635 91.8882 5.9984 91.5084 9.15443ZM84.9725 7.63697H89.3524C89.2661 6.5342 88.4386 5.84427 87.1633 5.84427C85.956 5.84244 85.145 6.4975 84.9725 7.63697Z" fill="#1D3544"/>
<path d="M92.2295 8.39494C92.2295 5.73801 94.0754 3.94531 96.8167 3.94531C98.0755 3.94531 99.1801 4.39303 100.092 5.27378L98.7636 6.705C98.281 6.22059 97.6076 5.94535 96.9011 5.94535C95.4883 5.94535 94.5048 6.94537 94.5048 8.3931C94.5048 9.84084 95.4699 10.8409 96.9011 10.8409C97.6608 10.8409 98.3489 10.5473 98.8663 10.0133L100.211 11.4611C99.2461 12.3913 98.1599 12.8391 96.8498 12.8391C94.0405 12.8427 92.2295 11.1032 92.2295 8.39494Z" fill="#1D3544"/>
<path d="M100.488 8.39494C100.488 5.79122 102.283 3.94531 105.092 3.94531C107.901 3.94531 109.696 5.79122 109.696 8.39494C109.696 10.9987 107.903 12.8427 105.092 12.8427C102.281 12.8427 100.488 10.9987 100.488 8.39494ZM107.421 8.39494C107.421 7.03344 106.507 5.94719 105.092 5.94719C103.677 5.94719 102.764 7.03344 102.764 8.39494C102.764 9.75643 103.677 10.8427 105.092 10.8427C106.507 10.8445 107.421 9.75827 107.421 8.39494Z" fill="#1D3544"/>
<path d="M124.681 7.58388V12.6537H122.388V7.8426C122.388 6.63523 121.819 5.96366 120.801 5.96366C119.698 5.96366 118.955 6.75634 118.955 7.9637V12.6537H116.678V7.8426C116.678 6.63523 116.109 5.96366 115.09 5.96366C113.988 5.96366 113.245 6.75634 113.245 7.9637V12.6537H110.951V4.1361H112.934L113.09 5.13612C113.659 4.39482 114.522 3.96362 115.522 3.96362C116.694 3.96362 117.659 4.49758 118.177 5.37649C118.85 4.4462 119.848 3.96362 121.16 3.96362C123.336 3.96362 124.681 5.32512 124.681 7.58388Z" fill="#1D3544"/>
<path d="M135.043 4.13602V12.6554H133.059L132.904 11.6206C132.197 12.4151 131.162 12.8444 129.955 12.8444C127.507 12.8444 125.817 11.0169 125.817 8.39665C125.817 5.77458 127.507 3.94702 129.955 3.94702C131.162 3.94702 132.214 4.37822 132.904 5.15438L133.059 4.13602H135.043ZM132.766 8.39481C132.766 6.96359 131.799 5.94706 130.421 5.94706C129.059 5.94706 128.092 6.96359 128.092 8.39481C128.092 9.82603 129.058 10.8426 130.421 10.8426C131.801 10.8444 132.766 9.82603 132.766 8.39481Z" fill="#1D3544"/>
<path d="M145.319 7.89593V12.6557H143.025V8.03355C143.025 6.72159 142.319 5.96378 141.179 5.96378C139.939 5.96378 139.109 6.87756 139.109 8.18768V12.6538H136.816V4.13622H138.799L138.955 5.11973C139.627 4.37843 140.627 3.96558 141.748 3.96558C143.922 3.96374 145.319 5.4812 145.319 7.89593Z" fill="#1D3544"/>
<path d="M155.68 0.58374V12.6555H153.697L153.541 11.6206C152.851 12.4152 151.816 12.8445 150.592 12.8445C148.144 12.8445 146.454 11.017 146.454 8.39673C146.454 5.77467 148.144 3.94711 150.592 3.94711C151.713 3.94711 152.697 4.32693 153.387 4.9985V0.58374H155.68ZM153.405 8.3949C153.405 6.96368 152.438 5.94715 151.06 5.94715C149.698 5.94715 148.731 6.96368 148.731 8.3949C148.731 9.82612 149.697 10.8427 151.06 10.8427C152.438 10.8445 153.405 9.82612 153.405 8.3949Z" fill="#1D3544"/>
<path d="M166.163 4.13602V12.6554H164.179L164.023 11.6206C163.317 12.4151 162.282 12.8444 161.075 12.8444C158.627 12.8444 156.937 11.0169 156.937 8.39665C156.937 5.77458 158.627 3.94702 161.075 3.94702C162.282 3.94702 163.333 4.37822 164.023 5.15438L164.179 4.13602H166.163ZM163.888 8.39481C163.888 6.96359 162.921 5.94706 161.543 5.94706C160.181 5.94706 159.214 6.96359 159.214 8.39481C159.214 9.82603 160.179 10.8426 161.543 10.8426C162.921 10.8444 163.888 9.82603 163.888 8.39481Z" fill="#1D3544"/>
<path d="M173.8 12.3437C173.093 12.6703 172.471 12.7914 171.713 12.7914C169.972 12.7914 168.816 11.8592 168.816 9.63535V6.0151H167.28V4.13616H168.816V1.96364L171.091 1.72144V4.13616H173.385V6.0151H171.091V9.63718C171.091 10.4133 171.488 10.8097 172.178 10.8097C172.506 10.8097 172.902 10.7069 173.196 10.5675L173.8 12.3437Z" fill="#1D3544"/>
<path d="M187.11 0.58374V12.6555H185.127L184.971 11.6206C184.281 12.4152 183.246 12.8445 182.022 12.8445C179.574 12.8445 177.884 11.017 177.884 8.39673C177.884 5.77467 179.574 3.94711 182.022 3.94711C183.143 3.94711 184.127 4.32693 184.817 4.9985V0.58374H187.11ZM184.835 8.3949C184.835 6.96368 183.868 5.94715 182.49 5.94715C181.128 5.94715 180.161 6.96368 180.161 8.3949C180.161 9.82612 181.127 10.8427 182.49 10.8427C183.868 10.8445 184.835 9.82612 184.835 8.3949Z" fill="#1D3544"/>
<path d="M197.264 9.15443H190.694C190.85 10.2242 191.78 10.9306 193.16 10.9306C194.074 10.9306 194.987 10.6205 195.54 10.1196L196.815 11.4297C195.919 12.3435 194.556 12.8774 193.074 12.8774C190.193 12.8774 188.365 11.1361 188.365 8.4113C188.365 5.75436 190.176 3.96167 192.85 3.96167C195.936 3.9635 197.644 5.9984 197.264 9.15443ZM190.729 7.63697H195.108C195.022 6.5342 194.195 5.84427 192.919 5.84427C191.712 5.84244 190.903 6.4975 190.729 7.63697Z" fill="#1D3544"/>
<path d="M74.1447 75.5136V58.8068C74.1447 54.693 71.9923 50.959 67.7537 50.959C63.5775 50.959 61.1096 54.693 61.1096 58.8068V75.5136H53.3865V44.2506H60.5371L61.1059 48.047C62.7518 44.8836 66.3592 43.7441 69.3336 43.7441C73.0676 43.7441 76.8016 45.2634 78.5723 49.5663C81.3577 45.1368 84.9651 43.8707 89.0147 43.8707C97.8736 43.8707 102.241 49.3131 102.241 58.6802V75.5136H94.5194V58.6802C94.5194 54.5664 92.8111 51.0856 88.6349 51.0856C84.4586 51.0856 81.8641 54.693 81.8641 58.805V75.5117H74.1447V75.5136Z" fill="#1D3544"/>
<path d="M134.234 44.1755H141.638V75.5082H134.36L133.981 70.7485C132.208 74.4183 127.336 76.1908 123.856 76.255C114.617 76.3192 107.782 70.6237 107.782 59.6749C107.782 48.9169 114.933 43.2837 124.047 43.348C128.223 43.348 132.21 45.3095 133.982 48.4104L134.234 44.1755ZM115.501 59.673C115.501 65.6218 119.615 69.165 124.74 69.165C136.891 69.165 136.891 50.2435 124.74 50.2435C119.615 50.2435 115.501 53.7243 115.501 59.673Z" fill="#1D3544"/>
<path d="M157.117 35.1514C157.117 41.1625 148.005 41.1625 148.005 35.1514C148.005 29.1403 157.117 29.1403 157.117 35.1514ZM148.7 44.1864V75.5118H156.422V44.1864H148.7Z" fill="#1D3544"/>
<path d="M171.181 31.2449V48.5535C173.016 45.3259 178.143 43.5534 181.433 43.5534C190.545 43.5534 197.318 49.1223 197.318 59.8803C197.318 70.1319 190.42 76.2072 181.244 76.2072C177.448 76.2072 173.587 74.9411 171.181 71.2071L170.675 75.5099H163.46V31.2449H171.181ZM171.688 59.8821C171.688 65.5134 175.864 69.0584 180.738 69.0584C185.673 69.0584 189.596 65.3244 189.596 59.8821C189.596 54.249 185.673 50.7682 180.738 50.7682C175.864 50.7682 171.688 54.4398 171.688 59.8821Z" fill="#1D3544"/>
<path d="M42.6597 41.2231C38.6156 34.9661 31.5842 30.821 23.5804 30.821H23.5786C11.037 30.821 0.869873 40.9882 0.869873 53.5297V53.5316C0.869873 55.1004 1.02951 56.6325 1.33227 58.1115C20.6629 45.9222 36.1605 42.2781 42.6597 41.2231Z" fill="#3BBFAD"/>
<path d="M43.1257 41.9753C24.0006 50.2452 11.4627 64.5097 7.46265 69.5245C11.5765 73.6695 17.2775 76.2365 23.5785 76.2365H23.5804C36.1219 76.2365 46.2891 66.0694 46.2891 53.5279V53.526C46.2872 49.3094 45.1313 45.3607 43.1257 41.9753Z" fill="#3BBFAD"/>
</svg>
